<?xml version="1.0" encoding="UTF-8" standalone="no"?>
<!DOCTYPE svg PUBLIC "-//W3C//DTD SVG 1.1//EN" "http://www.w3.org/Graphics/SVG/1.1/DTD/svg11.dtd">
<svg height="260" width="303.04" viewBox="0 0 303.044 260" xmlns="http://www.w3.org/2000/svg">
<path d="m38.044 82c17.968 30.284 46.517 57.792 90 62 58.798 5.69 97.927-24.508 118-62-0.072 53.567-35.808 93.448-83 102-12.035 2.181-28.128 2.611-42 0-45.44-8.554-80.338-46.323-83-102z" fill="white"/>
<path d="m32.044 43c0.851-0.184 0.943 0.39 1 1 7.668 19.3 14.321 35.284 26 49 28.408 33.363 88.149 49.07 134 25 28.864-15.153 48.836-41.593 59-75 28.34 76.277-27.127 149.34-96 156-87.056 8.425-152.4-71.794-124-156zm89 141c13.872 2.611 29.965 2.181 42 0 47.192-8.552 82.928-48.433 83-102-20.073 37.492-59.202 67.69-118 62-43.483-4.208-72.032-31.716-90-62 2.662 55.677 37.56 93.446 83 102z"/>
</svg>